<mxfile host="app.diagrams.net" modified="2023-06-13T05:42:53.752Z" agent="Mozilla/5.0 (Windows NT 10.0; Win64; x64) AppleWebKit/537.36 (KHTML, like Gecko) Chrome/114.0.0.0 Safari/537.36" etag="FN1ukRCCkslBQmi-cf77" version="21.3.7" type="github">
  <diagram name="Page-1" id="x6VWTZ31vIRzJS5RTLA4">
    <mxGraphModel dx="3134" dy="764" grid="1" gridSize="10" guides="1" tooltips="1" connect="1" arrows="1" fold="1" page="1" pageScale="1" pageWidth="850" pageHeight="1100" math="0" shadow="0">
      <root>
        <mxCell id="0" />
        <mxCell id="1" parent="0" />
        <mxCell id="BEkTw003qSyDK9eR2Wev-4" value="&lt;span style=&quot;font-size: 18px;&quot;&gt;Jenkins plugin for RDOi&lt;/span&gt;" style="swimlane;childLayout=stackLayout;resizeParent=1;resizeParentMax=0;horizontal=1;startSize=20;horizontalStack=0;html=1;" parent="1" vertex="1">
          <mxGeometry x="-1482" y="559" width="1320" height="431" as="geometry" />
        </mxCell>
        <mxCell id="BEkTw003qSyDK9eR2Wev-13" value="&lt;font style=&quot;font-size: 18px;&quot;&gt;Jenkins&lt;/font&gt;" style="swimlane;startSize=20;horizontal=0;html=1;" parent="BEkTw003qSyDK9eR2Wev-4" vertex="1">
          <mxGeometry y="20" width="1320" height="140" as="geometry">
            <mxRectangle y="160" width="1380" height="40" as="alternateBounds" />
          </mxGeometry>
        </mxCell>
        <mxCell id="BEkTw003qSyDK9eR2Wev-14" value="" style="whiteSpace=wrap;html=1;fillColor=#e1d5e7;strokeColor=#9673a6;" parent="BEkTw003qSyDK9eR2Wev-13" vertex="1">
          <mxGeometry x="20" width="1300" height="140" as="geometry" />
        </mxCell>
        <mxCell id="BEkTw003qSyDK9eR2Wev-21" value="" style="endArrow=classic;html=1;rounded=0;exitX=1;exitY=0.5;exitDx=0;exitDy=0;entryX=0;entryY=0.5;entryDx=0;entryDy=0;" parent="BEkTw003qSyDK9eR2Wev-13" edge="1">
          <mxGeometry width="50" height="50" relative="1" as="geometry">
            <mxPoint x="371.6700000000001" y="90" as="sourcePoint" />
            <mxPoint x="411.6700000000001" y="90" as="targetPoint" />
          </mxGeometry>
        </mxCell>
        <mxCell id="BEkTw003qSyDK9eR2Wev-96" value="&lt;b&gt;&lt;font style=&quot;font-size: 17px;&quot;&gt;RDOi Jenkins plugin trigger deploy pipeline&lt;/font&gt;&lt;/b&gt;" style="rounded=0;whiteSpace=wrap;html=1;fillColor=#B5D5E8;strokeColor=#82b366;" parent="BEkTw003qSyDK9eR2Wev-13" vertex="1">
          <mxGeometry x="218.67000000000007" y="44" width="802" height="50" as="geometry" />
        </mxCell>
        <mxCell id="BEkTw003qSyDK9eR2Wev-97" value="&lt;font style=&quot;font-size: 24px;&quot;&gt;Jenkins Job&amp;nbsp;&lt;/font&gt;" style="text;html=1;strokeColor=none;fillColor=none;align=center;verticalAlign=middle;whiteSpace=wrap;rounded=0;" parent="BEkTw003qSyDK9eR2Wev-13" vertex="1">
          <mxGeometry x="31" y="44" width="148.67" height="53" as="geometry" />
        </mxCell>
        <mxCell id="BEkTw003qSyDK9eR2Wev-115" value="&lt;font style=&quot;font-size: 18px;&quot;&gt;RDOp&lt;/font&gt;" style="swimlane;startSize=20;horizontal=0;html=1;" parent="BEkTw003qSyDK9eR2Wev-4" vertex="1">
          <mxGeometry y="160" width="1320" height="140" as="geometry">
            <mxRectangle y="160" width="1380" height="40" as="alternateBounds" />
          </mxGeometry>
        </mxCell>
        <mxCell id="BEkTw003qSyDK9eR2Wev-116" value="" style="whiteSpace=wrap;html=1;fillColor=#eeeeee;strokeColor=#36393d;" parent="BEkTw003qSyDK9eR2Wev-115" vertex="1">
          <mxGeometry x="20" y="-1" width="1300" height="140" as="geometry" />
        </mxCell>
        <mxCell id="hh2636ww-rOC9nr4U4GM-5" value="&lt;span style=&quot;font-size: 24px;&quot;&gt;Deploy pipeline&lt;/span&gt;" style="text;html=1;strokeColor=none;fillColor=none;align=center;verticalAlign=middle;whiteSpace=wrap;rounded=0;" parent="BEkTw003qSyDK9eR2Wev-115" vertex="1">
          <mxGeometry x="22" y="50" width="178.67" height="30" as="geometry" />
        </mxCell>
        <mxCell id="BEkTw003qSyDK9eR2Wev-83" value="&lt;font style=&quot;font-size: 18px;&quot;&gt;RDOi&lt;/font&gt;" style="swimlane;startSize=20;horizontal=0;html=1;" parent="BEkTw003qSyDK9eR2Wev-4" vertex="1">
          <mxGeometry y="300" width="1320" height="131" as="geometry">
            <mxRectangle y="160" width="1380" height="40" as="alternateBounds" />
          </mxGeometry>
        </mxCell>
        <mxCell id="BEkTw003qSyDK9eR2Wev-84" value="" style="whiteSpace=wrap;html=1;fillColor=#dae8fc;strokeColor=#6c8ebf;" parent="BEkTw003qSyDK9eR2Wev-83" vertex="1">
          <mxGeometry x="21" width="1299" height="130" as="geometry" />
        </mxCell>
        <mxCell id="BEkTw003qSyDK9eR2Wev-159" value="IBM i PASE&amp;nbsp; &amp;nbsp; &amp;nbsp; &amp;nbsp; &amp;nbsp; &amp;nbsp; &amp;nbsp; &amp;nbsp; &amp;nbsp; &amp;nbsp; &amp;nbsp; &amp;nbsp; &amp;nbsp; &amp;nbsp; &amp;nbsp; &amp;nbsp; &amp;nbsp; &amp;nbsp; &amp;nbsp; &amp;nbsp; &amp;nbsp; &amp;nbsp; &amp;nbsp; &amp;nbsp; &amp;nbsp; &amp;nbsp; &amp;nbsp; &amp;nbsp; &amp;nbsp; &amp;nbsp; &amp;nbsp;&amp;nbsp;" style="rounded=0;whiteSpace=wrap;html=1;" parent="BEkTw003qSyDK9eR2Wev-83" vertex="1">
          <mxGeometry x="220" y="10" width="800" height="82" as="geometry" />
        </mxCell>
        <mxCell id="BEkTw003qSyDK9eR2Wev-155" value="RDOi-API" style="rounded=1;whiteSpace=wrap;html=1;" parent="BEkTw003qSyDK9eR2Wev-83" vertex="1">
          <mxGeometry x="479" y="33" width="213" height="38" as="geometry" />
        </mxCell>
        <mxCell id="BEkTw003qSyDK9eR2Wev-153" value="" style="shape=doubleArrow;direction=south;whiteSpace=wrap;html=1;" parent="1" vertex="1">
          <mxGeometry x="-911" y="806" width="14" height="85" as="geometry" />
        </mxCell>
        <mxCell id="hh2636ww-rOC9nr4U4GM-1" value="" style="rounded=0;whiteSpace=wrap;html=1;fillColor=#d5e8d4;strokeColor=#82b366;" parent="1" vertex="1">
          <mxGeometry x="-1262.33" y="758" width="802" height="50" as="geometry" />
        </mxCell>
        <mxCell id="hh2636ww-rOC9nr4U4GM-2" value="&lt;b&gt;Promote(Optional)&lt;/b&gt;" style="rounded=1;whiteSpace=wrap;html=1;" parent="1" vertex="1">
          <mxGeometry x="-1098" y="764" width="116" height="40" as="geometry" />
        </mxCell>
        <mxCell id="hh2636ww-rOC9nr4U4GM-3" value="&lt;b style=&quot;border-color: var(--border-color);&quot;&gt;Deploy&lt;/b&gt;" style="rounded=1;whiteSpace=wrap;html=1;" parent="1" vertex="1">
          <mxGeometry x="-953" y="764" width="110" height="40" as="geometry" />
        </mxCell>
        <mxCell id="hh2636ww-rOC9nr4U4GM-4" value="&lt;b&gt;Test(Optional)&lt;/b&gt;" style="rounded=1;whiteSpace=wrap;html=1;" parent="1" vertex="1">
          <mxGeometry x="-816" y="762" width="143" height="40" as="geometry" />
        </mxCell>
        <mxCell id="BEkTw003qSyDK9eR2Wev-173" value="" style="endArrow=classic;html=1;rounded=0;" parent="1" edge="1">
          <mxGeometry width="50" height="50" relative="1" as="geometry">
            <mxPoint x="-843" y="785" as="sourcePoint" />
            <mxPoint x="-814" y="785" as="targetPoint" />
          </mxGeometry>
        </mxCell>
        <mxCell id="hh2636ww-rOC9nr4U4GM-6" value="" style="endArrow=classic;html=1;rounded=0;" parent="1" edge="1">
          <mxGeometry width="50" height="50" relative="1" as="geometry">
            <mxPoint x="-981" y="786" as="sourcePoint" />
            <mxPoint x="-952" y="786" as="targetPoint" />
          </mxGeometry>
        </mxCell>
        <mxCell id="CchkD9UpuK6fVdDI-FyL-1" value="" style="shape=doubleArrow;direction=south;whiteSpace=wrap;html=1;" parent="1" vertex="1">
          <mxGeometry x="-911" y="673" width="14" height="85" as="geometry" />
        </mxCell>
      </root>
    </mxGraphModel>
  </diagram>
</mxfile>
